<svg width="17" height="14" viewBox="0 0 17 14" fill="none" xmlns="http://www.w3.org/2000/svg">
<path d="M13.2812 9.71875H13.2701C13.1566 9.71627 13.0468 9.67749 12.9569 9.60807C12.8671 9.53866 12.8018 9.44228 12.7707 9.33306L11.0872 3.44469L10.0592 6.18594C10.0214 6.28719 9.95357 6.3745 9.86481 6.4362C9.77606 6.4979 9.67059 6.53106 9.5625 6.53125H7.4375V5.46875H9.19434L10.659 1.56353C10.6982 1.45882 10.7695 1.36916 10.8626 1.3073C10.9558 1.24545 11.066 1.21456 11.1778 1.21903C11.2895 1.2235 11.3969 1.26311 11.4848 1.33222C11.5727 1.40132 11.6366 1.4964 11.6673 1.60391L13.32 7.39028L14.3714 4.23838C14.4066 4.13263 14.4742 4.04065 14.5646 3.97543C14.6549 3.91022 14.7635 3.87508 14.875 3.875H17V4.9375H15.2575L13.7849 9.35537C13.7497 9.46112 13.6821 9.5531 13.5917 9.61832C13.5013 9.68353 13.3927 9.71867 13.2812 9.71875ZM7.96875 13.4375H6.90625V9.71875C6.90583 9.29619 6.73778 8.89106 6.43899 8.59226C6.14019 8.29347 5.73506 8.12542 5.3125 8.125H3.1875C2.76494 8.12542 2.35981 8.29347 2.06101 8.59226C1.76222 8.89106 1.59417 9.29619 1.59375 9.71875V13.4375H0.53125V9.71875C0.532094 9.01453 0.812219 8.33939 1.31018 7.84143C1.80814 7.34347 2.48328 7.06334 3.1875 7.0625H5.3125C6.01672 7.06334 6.69186 7.34347 7.18982 7.84143C7.68778 8.33939 7.96791 9.01453 7.96875 9.71875V13.4375ZM4.25 1.75C4.56521 1.75 4.87335 1.84347 5.13544 2.0186C5.39753 2.19372 5.60181 2.44263 5.72243 2.73385C5.84306 3.02507 5.87462 3.34552 5.81313 3.65468C5.75163 3.96383 5.59984 4.24781 5.37695 4.4707C5.15406 4.69359 4.87008 4.84538 4.56093 4.90688C4.25177 4.96837 3.93132 4.93681 3.6401 4.81618C3.34888 4.69556 3.09997 4.49128 2.92485 4.22919C2.74972 3.9671 2.65625 3.65896 2.65625 3.34375C2.65625 2.92106 2.82416 2.51568 3.12305 2.2168C3.42193 1.91791 3.82731 1.75 4.25 1.75ZM4.25 0.6875C3.72464 0.6875 3.21108 0.843286 2.77427 1.13516C2.33745 1.42703 1.99699 1.84188 1.79595 2.32725C1.5949 2.81261 1.5423 3.3467 1.64479 3.86196C1.74728 4.37722 2.00026 4.85052 2.37175 5.222C2.74323 5.59349 3.21653 5.84647 3.73179 5.94896C4.24705 6.05145 4.78114 5.99885 5.2665 5.79781C5.75187 5.59676 6.16672 5.2563 6.45859 4.81948C6.75046 4.38267 6.90625 3.86911 6.90625 3.34375C6.90625 2.63927 6.6264 1.96364 6.12825 1.4655C5.63011 0.967354 4.95448 0.6875 4.25 0.6875Z" fill="#606060"/>
</svg>
