<svg width="17" height="16" viewBox="0 0 17 16" fill="none" xmlns="http://www.w3.org/2000/svg">
<path d="M15.3708 12.675V11.9667L16.1499 11.4C16.2208 11.3292 16.2916 11.2583 16.2208 11.1875L15.5124 9.98332C15.5124 9.91249 15.3708 9.91249 15.2999 9.91249L14.4499 10.2667C14.2374 10.125 14.0249 9.98332 13.8124 9.91249L13.6708 8.99166C13.6708 8.92082 13.5999 8.84999 13.5291 8.84999H12.1124C11.9708 8.84999 11.8999 8.92082 11.8999 8.99166L11.7583 9.91249C11.5458 10.0542 11.4041 10.125 11.1916 10.2667L10.3416 9.91249C10.2708 9.91249 10.1999 9.91249 10.1291 9.98332L9.42075 11.1875C9.42075 11.2583 9.42075 11.3292 9.49158 11.4L10.2708 11.9667V12.675L9.49158 13.2417C9.42075 13.3125 9.34992 13.3833 9.42075 13.4542L10.1291 14.6583C10.1999 14.7292 10.2708 14.7292 10.3416 14.7292L11.1916 14.375C11.3333 14.5167 11.5458 14.6583 11.7583 14.7292L11.8999 15.65C11.9708 15.7208 12.0416 15.7917 12.1124 15.7917H13.5291C13.5999 15.7917 13.6708 15.7208 13.6708 15.65L13.8124 14.7292C14.0249 14.5875 14.1666 14.5167 14.3791 14.375L15.2291 14.6583C15.2999 14.6583 15.3708 14.6583 15.4416 14.5875L16.1499 13.3833C16.2208 13.3125 16.2208 13.2417 16.1499 13.2417L15.3708 12.675ZM12.7499 13.3125C12.1833 13.3125 11.6874 12.8167 11.6874 12.25C11.6874 11.6833 12.1833 11.1875 12.7499 11.1875C13.3166 11.1875 13.8124 11.6833 13.8124 12.25C13.8124 12.8167 13.3166 13.3125 12.7499 13.3125ZM8.71242 15.0833H2.12492C1.34575 15.0833 0.708252 14.4458 0.708252 13.6667V2.33332C0.708252 1.55416 1.34575 0.916656 2.12492 0.916656H14.8749C15.6541 0.916656 16.2916 1.55416 16.2916 2.33332V8.77916C15.8666 8.35416 15.3708 7.99999 14.8749 7.78749V3.74999H2.12492V13.6667H8.00409C8.14575 14.1625 8.35825 14.6583 8.71242 15.0833Z" fill="#606060"/>
</svg>
