<svg width="17" height="18" viewBox="0 0 17 18" fill="none" xmlns="http://www.w3.org/2000/svg">
<mask id="path-1-inside-1_5982_851" fill="white">
<path d="M2.83336 6.92697H6.42697V3.33336H11.3334V7.29058H12.2778V3.33336C12.2778 3.08288 12.1783 2.84265 12.0012 2.66554C11.8241 2.48842 11.5838 2.38892 11.3334 2.38892H5.13308L1.88892 5.63308V14.6667C1.88892 14.9172 1.98842 15.1574 2.16554 15.3345C2.34266 15.5116 2.58288 15.6111 2.83336 15.6111H11.3334C11.5838 15.6111 11.8241 15.5116 12.0012 15.3345C12.1783 15.1574 12.2778 14.9172 12.2778 14.6667H2.83336V6.92697ZM2.83336 6.0203L5.5203 3.33336H5.66669V6.16669H2.83336V6.0203Z"/>
</mask>
<path d="M2.83336 6.92697V5.92697H1.83336V6.92697H2.83336ZM6.42697 6.92697V7.92697H7.42697V6.92697H6.42697ZM6.42697 3.33336V2.33336H5.42697V3.33336H6.42697ZM11.3334 3.33336H12.3334V2.33336H11.3334V3.33336ZM11.3334 7.29058H10.3334V8.29058H11.3334V7.29058ZM12.2778 7.29058V8.29058H13.2778V7.29058H12.2778ZM11.3334 2.38892V1.38892V2.38892ZM5.13308 2.38892V1.38892H4.71887L4.42598 1.68181L5.13308 2.38892ZM1.88892 5.63308L1.18181 4.92598L0.888916 5.21887V5.63308H1.88892ZM1.88892 14.6667L0.888916 14.6667L1.88892 14.6667ZM12.2778 14.6667H13.2778V13.6667H12.2778V14.6667ZM2.83336 14.6667H1.83336V15.6667H2.83336V14.6667ZM2.83336 6.0203L2.12625 5.3132L1.83336 5.60609V6.0203H2.83336ZM5.5203 3.33336V2.33336H5.10609L4.8132 2.62625L5.5203 3.33336ZM5.66669 3.33336H6.66669V2.33336H5.66669V3.33336ZM5.66669 6.16669V7.16669H6.66669V6.16669H5.66669ZM2.83336 6.16669H1.83336V7.16669H2.83336V6.16669ZM2.83336 7.92697H6.42697V5.92697H2.83336V7.92697ZM7.42697 6.92697V3.33336H5.42697V6.92697H7.42697ZM6.42697 4.33336H11.3334V2.33336H6.42697V4.33336ZM10.3334 3.33336V7.29058H12.3334V3.33336H10.3334ZM11.3334 8.29058H12.2778V6.29058H11.3334V8.29058ZM13.2778 7.29058V3.33336H11.2778V7.29058H13.2778ZM13.2778 3.33336C13.2778 2.81766 13.0729 2.32308 12.7083 1.95843L11.2941 3.37264C11.2837 3.36223 11.2778 3.3481 11.2778 3.33336H13.2778ZM12.7083 1.95843C12.3436 1.59378 11.8491 1.38892 11.3334 1.38892L11.3334 3.38892C11.3186 3.38892 11.3045 3.38306 11.2941 3.37264L12.7083 1.95843ZM11.3334 1.38892H5.13308V3.38892H11.3334V1.38892ZM4.42598 1.68181L1.18181 4.92598L2.59602 6.34019L5.84019 3.09602L4.42598 1.68181ZM0.888916 5.63308V14.6667H2.88892V5.63308H0.888916ZM0.888916 14.6667C0.888916 15.1824 1.09378 15.677 1.45843 16.0416L2.87264 14.6274C2.88306 14.6378 2.88892 14.652 2.88892 14.6667L0.888916 14.6667ZM1.45843 16.0416C1.82308 16.4063 2.31766 16.6111 2.83336 16.6111V14.6111C2.8481 14.6111 2.86223 14.617 2.87264 14.6274L1.45843 16.0416ZM2.83336 16.6111H11.3334V14.6111H2.83336V16.6111ZM11.3334 16.6111C11.8491 16.6111 12.3436 16.4063 12.7083 16.0416L11.2941 14.6274C11.3045 14.617 11.3186 14.6111 11.3334 14.6111V16.6111ZM12.7083 16.0416C13.0729 15.677 13.2778 15.1824 13.2778 14.6667H11.2778C11.2778 14.652 11.2837 14.6378 11.2941 14.6274L12.7083 16.0416ZM12.2778 13.6667H2.83336V15.6667H12.2778V13.6667ZM3.83336 14.6667V6.92697H1.83336V14.6667H3.83336ZM3.54047 6.72741L6.22741 4.04047L4.8132 2.62625L2.12625 5.3132L3.54047 6.72741ZM5.5203 4.33336H5.66669V2.33336H5.5203V4.33336ZM4.66669 3.33336V6.16669H6.66669V3.33336H4.66669ZM5.66669 5.16669H2.83336V7.16669H5.66669V5.16669ZM3.83336 6.16669V6.0203H1.83336V6.16669H3.83336Z" fill="#606060" mask="url(#path-1-inside-1_5982_851)"/>
<path d="M13.3734 8.22085C13.2831 8.14349 13.1668 8.10306 13.048 8.10765C12.9292 8.11224 12.8164 8.16151 12.7323 8.24561C12.6482 8.32971 12.5989 8.44245 12.5944 8.5613C12.5898 8.68014 12.6302 8.79635 12.7076 8.88668L14.2423 10.4167H8.50005C8.37481 10.4167 8.2547 10.4664 8.16614 10.555C8.07758 10.6436 8.02783 10.7637 8.02783 10.8889C8.02783 11.0141 8.07758 11.1343 8.16614 11.2228C8.2547 11.3114 8.37481 11.3611 8.50005 11.3611H14.2564L12.7076 12.91C12.6581 12.9523 12.618 13.0044 12.5896 13.063C12.5613 13.1216 12.5454 13.1854 12.5428 13.2505C12.5403 13.3155 12.5513 13.3803 12.575 13.4409C12.5988 13.5015 12.6348 13.5566 12.6808 13.6026C12.7268 13.6486 12.7819 13.6846 12.8425 13.7084C12.9031 13.7321 12.9679 13.7431 13.0329 13.7406C13.098 13.738 13.1618 13.7221 13.2204 13.6938C13.279 13.6654 13.3311 13.6253 13.3734 13.5758L16.0556 10.8889L13.3734 8.22085Z" fill="#606060"/>
</svg>
