<svg width="16" height="16" viewBox="0 0 16 16" fill="none" xmlns="http://www.w3.org/2000/svg">
<path d="M8 0C3.58118 0 0 3.58118 0 8C0 12.4188 3.58118 16 8 16C12.4188 16 16 12.4188 16 8C16 3.58118 12.4188 0 8 0ZM8 15.1765C4.04235 15.1765 0.823529 11.9576 0.823529 8C0.823529 7.30353 0.922353 6.61647 1.12 5.95294C1.12471 5.93882 1.12941 5.92 1.13412 5.90588C1.14353 5.87765 1.16235 5.85882 1.17176 5.83529C1.19059 5.79765 1.20471 5.76 1.23294 5.72706C1.25647 5.69412 1.28941 5.66588 1.31765 5.64235C1.34118 5.62353 1.35529 5.6 1.37882 5.58588C1.38353 5.58118 1.39294 5.58118 1.39765 5.57647C1.43529 5.55294 1.47765 5.54353 1.51529 5.52941C1.54824 5.52 1.58118 5.50118 1.61412 5.49647C1.65176 5.49177 1.68471 5.50118 1.71765 5.50118C1.76 5.50118 1.80235 5.50118 1.84471 5.51059C1.85412 5.51059 1.85882 5.51059 1.86824 5.51059C1.89647 5.52 1.91529 5.53882 1.93882 5.54824C1.97647 5.56706 2.01412 5.58118 2.04706 5.60941C2.08 5.63294 2.10824 5.66118 2.13176 5.69412C2.15059 5.71294 2.17412 5.72706 2.19294 5.75529L3.95294 8.48C4.13176 8.75294 4.05176 9.12 3.77882 9.29412C3.68 9.36 3.57176 9.38824 3.45882 9.38824C3.26588 9.38824 3.07765 9.29412 2.96471 9.12L2.01412 7.64706C2.00471 7.76 2 7.87765 2 7.99529C2 11.3035 4.69176 13.9953 8 13.9953C11.3082 13.9953 14 11.3035 14 7.99529C14 4.68706 11.3082 1.99529 8 1.99529C6.02824 1.99529 4.18353 2.96471 3.06353 4.58824C2.87529 4.85176 2.50824 4.92235 2.24471 4.73412C1.97647 4.55059 1.91059 4.18353 2.09412 3.91529C3.43529 1.97647 5.64235 0.818824 8 0.818824C11.9576 0.818824 15.1765 4.03765 15.1765 7.99529C15.1765 11.9529 11.9576 15.1718 8 15.1718V15.1765ZM10.0612 9.23294C10.2918 9.45882 10.2918 9.83529 10.0612 10.0612C9.94823 10.1788 9.79765 10.2353 9.64706 10.2353C9.49647 10.2353 9.34588 10.1788 9.23294 10.0612L7.58588 8.41412C7.47294 8.30588 7.41176 8.15529 7.41176 8V4.70588C7.41176 4.38118 7.67529 4.11765 8 4.11765C8.32471 4.11765 8.58823 4.38118 8.58823 4.70588V7.75529L10.0612 9.23294Z" fill="#606060"/>
</svg>
