<svg width="17" height="16" viewBox="0 0 17 16" fill="none" xmlns="http://www.w3.org/2000/svg">
<path d="M15.931 6.3982L15.7504 6.58004M15.931 6.3982L15.398 6.47323L15.3968 6.47448M15.931 6.3982L15.931 6.39818M15.931 6.3982L15.931 6.39818M15.7504 6.58004L15.6257 6.45585L15.5028 6.57874L15.5019 6.57962L15.4509 6.63063L15.3776 6.704L15.3092 6.77233C15.3044 6.74994 15.302 6.72703 15.302 6.704C15.302 6.66108 15.3105 6.61861 15.3269 6.57902C15.3432 6.53997 15.3669 6.50446 15.3968 6.47448M15.7504 6.58004C15.7531 6.58272 15.7557 6.58549 15.7582 6.58833M15.7504 6.58004L15.7582 6.58833M15.3968 6.47448L14.2859 7.58586M15.3968 6.47448L14.2859 7.58586M14.2859 7.58586C14.2858 7.58594 14.2857 7.58601 14.2856 7.58609L14.2859 7.58586ZM15.7582 6.58833L15.8014 6.63153L15.8739 6.704L15.9793 6.8094L15.9503 6.83842L15.8556 6.9331L15.7582 6.58833ZM15.931 6.39818L15.8069 6.27403L15.7274 6.19457L15.6268 6.09396L15.931 6.39818ZM6.0415 13.2285L5.61393 13.4877C5.98621 14.1017 6.67878 14.1176 7.07756 14.1176H10.7628H11.9699L11.5069 13.6546C11.5629 13.5412 11.5929 13.4154 11.5929 13.2865C11.5929 13.0663 11.5054 12.855 11.3496 12.6992C11.1938 12.5435 10.9826 12.456 10.7623 12.456H7.342C7.38196 12.363 7.41664 12.2678 7.44585 12.1707L7.45044 12.1555L7.45405 12.14C7.50767 11.9095 7.48243 11.6677 7.38237 11.4533C7.28231 11.2389 7.11321 11.0642 6.90215 10.9573L6.89187 10.9521L6.88137 10.9474C6.60297 10.8221 6.2912 10.7914 5.99372 10.8601C5.96198 10.8674 5.9306 10.8758 5.89961 10.8853C5.92358 10.7927 5.94761 10.6999 5.97158 10.6075C6.05341 10.3426 6.0342 10.0565 5.91725 9.8046C5.79782 9.5474 5.58535 9.34502 5.32264 9.23823L5.30992 9.23306L5.29694 9.2286C5.01592 9.13198 4.7087 9.14562 4.43735 9.26678C4.17319 9.38473 3.96219 9.59602 3.8445 9.8597C3.7373 10.0621 3.30396 10.801 2.8777 11.5216C2.66236 11.8857 2.45282 12.2383 2.29606 12.5017L2.10649 12.8199C2.06637 12.8872 2.04283 12.9266 2.03638 12.9373L2.03456 12.9404L2.03452 12.9404L2.0313 12.9458C1.91837 13.135 1.88524 13.3613 1.93917 13.5749C1.99311 13.7885 2.1297 13.972 2.31891 14.0849C2.50811 14.1978 2.73442 14.231 2.94805 14.1771C3.16169 14.1231 3.34515 13.9865 3.45807 13.7973L3.45835 13.7968C3.46174 13.7912 3.46936 13.7784 3.4808 13.7592C3.51014 13.71 3.56457 13.6187 3.6369 13.4973C3.648 13.5412 3.66242 13.5844 3.68012 13.6265C3.75705 13.8097 3.89174 13.9626 4.06368 14.0621L4.07758 14.0702L4.09196 14.0773C4.27789 14.1695 4.48922 14.1972 4.69263 14.156C4.88588 14.1169 5.06152 14.0177 5.19469 13.873C5.27437 13.7961 5.39129 13.6619 5.58488 13.437C5.59411 13.4541 5.6039 13.4712 5.61426 13.4882L6.0415 13.2285ZM6.0415 13.2285C5.99717 13.1555 5.97092 13.0802 5.95854 13.0039M6.0415 13.2285C6.25306 13.5774 6.65161 13.6176 7.07756 13.6176H10.0557L10.4088 13.9706L10.4092 13.9711L10.7623 13.618L5.95854 13.0039M5.95854 13.0039C5.86088 13.1163 5.76179 13.2314 5.66829 13.34L5.66743 13.341L5.66724 13.3412L5.95854 13.0039ZM13.419 8.30054L13.6666 8.05301V15.0556H1.44434V0.944458H13.6666V3.87846V4.56102L12.0266 6.20099L11.8461 6.38152L11.8342 6.39341V6.01668V5.26112V4.76112H11.3342H3.77767H3.27767V5.26112V6.01668V6.51668H3.77767H11.3342H11.7109L11.673 6.55454L11.4925 6.73507L8.38056 9.84702L8.28361 9.94396L8.24967 10.0768L7.93674 11.3017C7.90977 11.4042 7.91025 11.5121 7.93821 11.6144C7.96614 11.7167 8.02049 11.8098 8.09573 11.8843C8.17057 11.9591 8.26376 12.0129 8.36601 12.0404C8.46879 12.068 8.57702 12.0679 8.67974 12.0403L9.90763 11.7163L10.0382 11.6819L10.1337 11.5864L13.2385 8.48104L13.419 8.30052L13.419 8.30054ZM14.8199 8.12041C14.82 8.12038 14.82 8.12034 14.8201 8.1203L14.8199 8.12041ZM3.77767 2.87224H3.27767V3.37224V4.12779V4.62779H3.77767H11.3342H11.8342V4.12779V3.37224V2.87224H11.3342H3.77767ZM3.77767 6.65001H3.27767V7.15001V7.90557V8.40557H3.77767H8.736H9.236V7.90557V7.15001V6.65001H8.736H3.77767Z" stroke="#606060"/>
</svg>
