<svg width="16" height="16" viewBox="0 0 16 16" fill="none" xmlns="http://www.w3.org/2000/svg">
<path d="M3 2.5L13 13.5" stroke="#B12F40" stroke-width="1.5" stroke-linecap="round" stroke-linejoin="round"/>
<path d="M1.5625 6.13789C2.41363 5.29966 3.41986 4.6352 4.525 4.18164" stroke="#B12F40" stroke-width="1.5" stroke-linecap="round" stroke-linejoin="round"/>
<path d="M3.6875 8.25625C4.53039 7.42954 5.59363 6.86319 6.75 6.625" stroke="#B12F40" stroke-width="1.5" stroke-linecap="round" stroke-linejoin="round"/>
<path d="M5.80627 10.3813C6.36991 9.84317 7.11146 9.53063 7.89025 9.50298C8.66904 9.47533 9.4309 9.7345 10.0313 10.2313" stroke="#B12F40" stroke-width="2.25" stroke-linecap="round" stroke-linejoin="round"/>
<path d="M7.3125 3.52503C7.5375 3.50628 7.76875 3.50003 8 3.50003C10.4083 3.49355 12.721 4.44199 14.4312 6.13753" stroke="#B12F40" stroke-width="2.25" stroke-linecap="round" stroke-linejoin="round"/>
<path d="M10.4875 7.01855C11.1649 7.3187 11.783 7.73782 12.3125 8.25605" stroke="#B12F40" stroke-width="2.25" stroke-linecap="round" stroke-linejoin="round"/>
<path d="M8 13.5C8.55228 13.5 9 13.0523 9 12.5C9 11.9477 8.55228 11.5 8 11.5C7.44772 11.5 7 11.9477 7 12.5C7 13.0523 7.44772 13.5 8 13.5Z" fill="#B12F40"/>
</svg>
