<svg width="19" height="16" viewBox="0 0 19 16" fill="none" xmlns="http://www.w3.org/2000/svg">
<path fill-rule="evenodd" clip-rule="evenodd" d="M14.7485 3.02131L12.074 0.339874V2.8891C12.074 2.90657 12.0774 2.92388 12.084 2.94003C12.0907 2.95618 12.1005 2.97086 12.1128 2.98322C12.1371 3.00755 12.17 3.02125 12.2044 3.02131H14.7485ZM15.0863 3.50219V15.876C15.0864 15.8925 15.0831 15.9087 15.0769 15.9239C15.0706 15.9391 15.0613 15.9529 15.0497 15.9645C15.0383 15.9758 15.0248 15.9848 15.01 15.9909C14.9951 15.997 14.9792 16.0001 14.9631 16H3.12342C3.10733 16.0001 3.09138 15.997 3.07648 15.9909C3.06159 15.9848 3.04804 15.9758 3.03662 15.9645C3.01319 15.941 3.00002 15.9092 3 15.876V0.123974C3.00002 0.0908055 3.01319 0.0589972 3.03662 0.0355269C3.04804 0.0241865 3.06159 0.0152112 3.07648 0.00911505C3.09138 0.00301892 3.10733 -7.80807e-05 3.12342 1.49544e-06H11.5933V2.8891C11.5939 3.05132 11.6586 3.20673 11.7732 3.32154C11.8878 3.43635 12.0431 3.50127 12.2053 3.50219H15.0863ZM4.70101 6.24021C4.63735 6.24021 4.5763 6.26547 4.53125 6.31045C4.48621 6.35543 4.46085 6.41644 4.46075 6.4801V12.4542C4.46073 12.4858 4.46693 12.5171 4.47899 12.5462C4.49105 12.5754 4.50875 12.6019 4.53106 12.6242C4.55337 12.6466 4.57986 12.6643 4.60903 12.6764C4.63819 12.6884 4.66944 12.6947 4.70101 12.6947H13.0995C13.131 12.6947 13.1623 12.6884 13.1915 12.6764C13.2206 12.6643 13.2471 12.6466 13.2694 12.6242C13.2917 12.6019 13.3094 12.5754 13.3215 12.5462C13.3336 12.5171 13.3398 12.4858 13.3397 12.4542V6.4801C13.3396 6.41644 13.3143 6.35543 13.2692 6.31045C13.2242 6.26547 13.1631 6.24021 13.0995 6.24021H4.70101ZM4.70101 2.48495H5.88946C5.92158 2.48584 5.95356 2.48028 5.98349 2.4686C6.01343 2.45692 6.04072 2.43936 6.06375 2.41695C6.08678 2.39454 6.10509 2.36775 6.11759 2.33815C6.13009 2.30855 6.13654 2.27674 6.13654 2.2446C6.13654 2.21247 6.13009 2.18066 6.11759 2.15106C6.10509 2.12146 6.08678 2.09467 6.06375 2.07226C6.04072 2.04985 6.01343 2.03229 5.98349 2.02061C5.95356 2.00893 5.92158 2.00337 5.88946 2.00426H4.70101C4.63841 2.00599 4.57896 2.03207 4.5353 2.07695C4.49164 2.12184 4.46721 2.18199 4.46721 2.2446C4.46721 2.30722 4.49164 2.36737 4.5353 2.41226C4.57896 2.45714 4.63841 2.48322 4.70101 2.48495ZM4.70101 3.57983H7.07792C7.11004 3.58072 7.14201 3.57516 7.17195 3.56348C7.20188 3.5518 7.22917 3.53423 7.25221 3.51183C7.27524 3.48942 7.29355 3.46263 7.30605 3.43303C7.31855 3.40342 7.32499 3.37162 7.32499 3.33948C7.32499 3.30735 7.31855 3.27554 7.30605 3.24594C7.29355 3.21634 7.27524 3.18955 7.25221 3.16714C7.22917 3.14473 7.20188 3.12717 7.17195 3.11549C7.14201 3.10381 7.11004 3.09825 7.07792 3.09914H4.70101C4.63841 3.10087 4.57896 3.12695 4.5353 3.17183C4.49164 3.21672 4.46721 3.27686 4.46721 3.33948C4.46721 3.4021 4.49164 3.46225 4.5353 3.50714C4.57896 3.55202 4.63841 3.5781 4.70101 3.57983ZM4.70101 4.67453H7.07792C7.11004 4.67541 7.14201 4.66985 7.17195 4.65817C7.20188 4.64649 7.22917 4.62893 7.25221 4.60652C7.27524 4.58412 7.29355 4.55732 7.30605 4.52772C7.31855 4.49812 7.32499 4.46631 7.32499 4.43418C7.32499 4.40205 7.31855 4.37024 7.30605 4.34064C7.29355 4.31104 7.27524 4.28424 7.25221 4.26184C7.22917 4.23943 7.20188 4.22187 7.17195 4.21019C7.14201 4.19851 7.11004 4.19295 7.07792 4.19383H4.70101C4.63841 4.19556 4.57896 4.22164 4.5353 4.26653C4.49164 4.31141 4.46721 4.37156 4.46721 4.43418C4.46721 4.4968 4.49164 4.55695 4.5353 4.60183C4.57896 4.64672 4.63841 4.6728 4.70101 4.67453ZM6.90212 8.0879H12.859V6.7209H6.90212V8.0879ZM4.94145 8.0879H6.42143V6.7209H4.94145V8.0879ZM6.90212 9.46332H12.859V8.56859H6.90212V9.46332ZM4.94145 9.46332H6.42143V8.56859H4.94145V9.46332ZM6.42143 11.3192H4.94145V12.214H6.42143V11.3192ZM12.859 11.3192H6.90212V12.214H12.859V11.3192ZM6.90212 10.8384H12.859V9.94401H6.90212V10.8384ZM4.94145 10.8384H6.42143V9.94401H4.94145V10.8384ZM5.55179 14.4202H7.07792C7.11004 14.4211 7.14201 14.4155 7.17195 14.4039C7.20188 14.3922 7.22917 14.3746 7.25221 14.3522C7.27524 14.3298 7.29355 14.303 7.30605 14.2734C7.31855 14.2438 7.32499 14.212 7.32499 14.1799C7.32499 14.1477 7.31855 14.1159 7.30605 14.0863C7.29355 14.0567 7.27524 14.0299 7.25221 14.0075C7.22917 13.9851 7.20188 13.9676 7.17195 13.9559C7.14201 13.9442 7.11004 13.9386 7.07792 13.9395H5.55179C5.51967 13.9386 5.48769 13.9442 5.45776 13.9559C5.42782 13.9676 5.40053 13.9851 5.3775 14.0075C5.35447 14.0299 5.33616 14.0567 5.32366 14.0863C5.31116 14.1159 5.30472 14.1477 5.30472 14.1799C5.30472 14.212 5.31116 14.2438 5.32366 14.2734C5.33616 14.303 5.35447 14.3298 5.3775 14.3522C5.40053 14.3746 5.42782 14.3922 5.45776 14.4039C5.48769 14.4155 5.51967 14.4211 5.55179 14.4202ZM4.70101 14.4202H4.70339C4.73551 14.4211 4.76748 14.4155 4.79742 14.4039C4.82735 14.3922 4.85464 14.3746 4.87768 14.3522C4.90071 14.3298 4.91902 14.303 4.93152 14.2734C4.94402 14.2438 4.95046 14.212 4.95046 14.1799C4.95046 14.1477 4.94402 14.1159 4.93152 14.0863C4.91902 14.0567 4.90071 14.0299 4.87768 14.0075C4.85464 13.9851 4.82735 13.9676 4.79742 13.9559C4.76748 13.9442 4.73551 13.9386 4.70339 13.9395H4.70138C4.63878 13.9413 4.57933 13.9673 4.53567 14.0122C4.492 14.0571 4.46757 14.1173 4.46757 14.1799C4.46757 14.2425 4.492 14.3026 4.53567 14.3475C4.57933 14.3924 4.63878 14.4185 4.70138 14.4202H4.70101Z" fill="#606060"/>
</svg>
