<svg width="18" height="16" viewBox="0 0 18 16" fill="none" xmlns="http://www.w3.org/2000/svg">
<path d="M15.9635 16V7.60787C15.9163 7.61001 15.8691 7.61144 15.8219 7.61144C15.1928 7.61144 14.56 7.40268 14.0753 6.98586L14.0281 6.94439L13.9831 6.98443C13.4969 7.40268 12.8649 7.61144 12.235 7.61144C11.6051 7.61144 10.9731 7.40268 10.4877 6.98514L10.4412 6.94367L10.3954 6.98443C9.91 7.40268 9.27726 7.61144 8.64739 7.61144C8.01824 7.61144 7.38552 7.40268 6.90077 6.98585L6.85358 6.94439L6.80854 6.98443C6.32239 7.40268 5.69036 7.61144 5.06049 7.61144C4.43062 7.61144 3.79862 7.40268 3.31316 6.98514L3.26668 6.94367L3.22093 6.98443C2.73549 7.40268 2.10274 7.61144 1.47288 7.61144C1.42569 7.61144 1.3785 7.61001 1.33132 7.60786V16H2.08131V8.74976C2.08131 8.5982 2.20428 8.47522 2.35584 8.47522H7.03876C7.19033 8.47522 7.3133 8.5982 7.3133 8.74976V16L15.9635 16ZM2.62962 16H6.76345V9.02431H2.62962V16ZM3.03572 6.39971L4.35622 1.42431H2.10627L0 6.4947L0.0822192 6.56977C0.463994 6.89793 0.967317 7.06237 1.4728 7.06237C1.97826 7.06237 2.48159 6.89793 2.86338 6.56977C2.92344 6.51829 2.98135 6.4611 3.0364 6.39961L3.03572 6.39971ZM4.92254 1.42431L3.57916 6.48756C3.60561 6.51401 3.63278 6.53904 3.66495 6.5662C4.05031 6.89794 4.55435 7.06237 5.05981 7.06237C5.56528 7.06237 6.06932 6.89793 6.45111 6.56977C6.5176 6.51258 6.58052 6.45038 6.64272 6.37959L7.09028 1.42433L4.92254 1.42431ZM10.1102 6.5033L9.65482 1.42431H7.63731L7.1826 6.50257C7.20691 6.52545 7.23122 6.54761 7.25624 6.56906C7.63802 6.89723 8.14134 7.06166 8.64682 7.06166C9.15231 7.06166 9.65561 6.89722 10.0374 6.56906C10.0624 6.54761 10.0867 6.52545 10.1103 6.50257L10.1102 6.5033ZM10.2039 1.42431L10.6479 6.37463C10.7058 6.44184 10.7694 6.50547 10.8395 6.56624C11.2249 6.89798 11.7289 7.06241 12.2344 7.06241C12.7398 7.06241 13.2439 6.89797 13.6257 6.56981C13.6564 6.54336 13.6857 6.51619 13.715 6.48759L12.3716 1.42435L10.2039 1.42431ZM12.9372 1.42431L14.2577 6.39971C14.3121 6.46048 14.37 6.51696 14.4307 6.56987C14.8125 6.89803 15.3158 7.06246 15.8213 7.06246C16.3268 7.06246 16.8301 6.89803 17.2119 6.56987L17.2941 6.49479L15.1878 1.42441L12.9372 1.42431ZM5.71975 12.5038C5.83486 12.4059 6.00787 12.4202 6.10582 12.536C6.20377 12.6511 6.18947 12.8241 6.07365 12.9221L5.35727 13.5262C5.24216 13.6242 5.06915 13.6099 4.97119 13.494C4.87324 13.3789 4.88754 13.2059 5.00336 13.108L5.71975 12.5038ZM8.33868 8.47505H14.9384C15.09 8.47505 15.213 8.59802 15.213 8.74959V14.1774C15.213 14.329 15.09 14.452 14.9384 14.452H8.33868C8.18711 14.452 8.06414 14.329 8.06414 14.1774V8.74959C8.06414 8.59802 8.18711 8.47505 8.33868 8.47505ZM14.6639 9.02413H8.61322V13.9029H14.6639V9.02413ZM15.7678 0H1.5261V0.874373H15.7678V0Z" fill="#606060"/>
</svg>
