<svg width="16" height="17" viewBox="0 0 16 17" fill="none" xmlns="http://www.w3.org/2000/svg">
<path d="M1 14.4545C1 14.6534 1.07902 14.8441 1.21967 14.9848C1.36032 15.1255 1.55109 15.2045 1.75 15.2045H14.25C14.4489 15.2045 14.6397 15.1255 14.7803 14.9848C14.921 14.8441 15 14.6534 15 14.4545V5.70447H1V14.4545ZM11 6.82947C11 6.79632 11.0132 6.76452 11.0366 6.74108C11.0601 6.71764 11.0918 6.70447 11.125 6.70447H12.375C12.4082 6.70447 12.4399 6.71764 12.4634 6.74108C12.4868 6.76452 12.5 6.79632 12.5 6.82947V8.07947C12.5 8.11262 12.4868 8.14441 12.4634 8.16786C12.4399 8.1913 12.4082 8.20447 12.375 8.20447H11.125C11.0918 8.20447 11.0601 8.1913 11.0366 8.16786C11.0132 8.14441 11 8.11262 11 8.07947V6.82947ZM11 9.32947C11 9.29632 11.0132 9.26452 11.0366 9.24108C11.0601 9.21764 11.0918 9.20447 11.125 9.20447H12.375C12.4082 9.20447 12.4399 9.21764 12.4634 9.24108C12.4868 9.26452 12.5 9.29632 12.5 9.32947V10.5795C12.5 10.6126 12.4868 10.6444 12.4634 10.6679C12.4399 10.6913 12.4082 10.7045 12.375 10.7045H11.125C11.0918 10.7045 11.0601 10.6913 11.0366 10.6679C11.0132 10.6444 11 10.6126 11 10.5795V9.32947ZM8.5 6.82947C8.5 6.79632 8.51317 6.76452 8.53661 6.74108C8.56005 6.71764 8.59185 6.70447 8.625 6.70447H9.875C9.90815 6.70447 9.93995 6.71764 9.96339 6.74108C9.98683 6.76452 10 6.79632 10 6.82947V8.07947C10 8.11262 9.98683 8.14441 9.96339 8.16786C9.93995 8.1913 9.90815 8.20447 9.875 8.20447H8.625C8.59185 8.20447 8.56005 8.1913 8.53661 8.16786C8.51317 8.14441 8.5 8.11262 8.5 8.07947V6.82947ZM8.5 9.32947C8.5 9.29632 8.51317 9.26452 8.53661 9.24108C8.56005 9.21764 8.59185 9.20447 8.625 9.20447H9.875C9.90815 9.20447 9.93995 9.21764 9.96339 9.24108C9.98683 9.26452 10 9.29632 10 9.32947V10.5795C10 10.6126 9.98683 10.6444 9.96339 10.6679C9.93995 10.6913 9.90815 10.7045 9.875 10.7045H8.625C8.59185 10.7045 8.56005 10.6913 8.53661 10.6679C8.51317 10.6444 8.5 10.6126 8.5 10.5795V9.32947ZM8.5 11.8295C8.5 11.7963 8.51317 11.7645 8.53661 11.7411C8.56005 11.7176 8.59185 11.7045 8.625 11.7045H9.875C9.90815 11.7045 9.93995 11.7176 9.96339 11.7411C9.98683 11.7645 10 11.7963 10 11.8295V13.0795C10 13.1126 9.98683 13.1444 9.96339 13.1679C9.93995 13.1913 9.90815 13.2045 9.875 13.2045H8.625C8.59185 13.2045 8.56005 13.1913 8.53661 13.1679C8.51317 13.1444 8.5 13.1126 8.5 13.0795V11.8295ZM6 9.32947C6 9.29632 6.01317 9.26452 6.03661 9.24108C6.06005 9.21764 6.09185 9.20447 6.125 9.20447H7.375C7.40815 9.20447 7.43995 9.21764 7.46339 9.24108C7.48683 9.26452 7.5 9.29632 7.5 9.32947V10.5795C7.5 10.6126 7.48683 10.6444 7.46339 10.6679C7.43995 10.6913 7.40815 10.7045 7.375 10.7045H6.125C6.09185 10.7045 6.06005 10.6913 6.03661 10.6679C6.01317 10.6444 6 10.6126 6 10.5795V9.32947ZM6 11.8295C6 11.7963 6.01317 11.7645 6.03661 11.7411C6.06005 11.7176 6.09185 11.7045 6.125 11.7045H7.375C7.40815 11.7045 7.43995 11.7176 7.46339 11.7411C7.48683 11.7645 7.5 11.7963 7.5 11.8295V13.0795C7.5 13.1126 7.48683 13.1444 7.46339 13.1679C7.43995 13.1913 7.40815 13.2045 7.375 13.2045H6.125C6.09185 13.2045 6.06005 13.1913 6.03661 13.1679C6.01317 13.1444 6 13.1126 6 13.0795V11.8295ZM3.5 9.32947C3.5 9.29632 3.51317 9.26452 3.53661 9.24108C3.56005 9.21764 3.59185 9.20447 3.625 9.20447H4.875C4.90815 9.20447 4.93995 9.21764 4.96339 9.24108C4.98683 9.26452 5 9.29632 5 9.32947V10.5795C5 10.6126 4.98683 10.6444 4.96339 10.6679C4.93995 10.6913 4.90815 10.7045 4.875 10.7045H3.625C3.59185 10.7045 3.56005 10.6913 3.53661 10.6679C3.51317 10.6444 3.5 10.6126 3.5 10.5795V9.32947ZM3.5 11.8295C3.5 11.7963 3.51317 11.7645 3.53661 11.7411C3.56005 11.7176 3.59185 11.7045 3.625 11.7045H4.875C4.90815 11.7045 4.93995 11.7176 4.96339 11.7411C4.98683 11.7645 5 11.7963 5 11.8295V13.0795C5 13.1126 4.98683 13.1444 4.96339 13.1679C4.93995 13.1913 4.90815 13.2045 4.875 13.2045H3.625C3.59185 13.2045 3.56005 13.1913 3.53661 13.1679C3.51317 13.1444 3.5 13.1126 3.5 13.0795V11.8295ZM14.25 2.20447H12.5025V1.20447H11.0025V2.20447H4.9975V1.20447H3.4975V2.20447H1.75C1.65188 2.20364 1.55457 2.22224 1.46368 2.25919C1.37278 2.29614 1.29009 2.35071 1.22038 2.41975C1.15066 2.4888 1.0953 2.57096 1.05748 2.6615C1.01965 2.75203 1.00012 2.84916 1 2.94728V4.70447H15V2.94728C14.9999 2.84916 14.9803 2.75203 14.9425 2.6615C14.9047 2.57096 14.8493 2.4888 14.7796 2.41975C14.7099 2.35071 14.6272 2.29614 14.5363 2.25919C14.4454 2.22224 14.3481 2.20364 14.25 2.20447Z" fill="#999999"/>
</svg>
