<svg width="16" height="16" viewBox="0 0 16 16" fill="none" xmlns="http://www.w3.org/2000/svg">
<path d="M15.0087 9.72221L15.2327 8.37842H6.34668L6.5767 9.72221H15.0087Z" fill="#606060"/>
<path d="M15.6747 5.7285L16 3.77637H5.55688L5.89132 5.7285H15.6747Z" fill="#606060"/>
<path d="M15.3082 7.9244L15.5987 6.18262H5.96973L6.26784 7.9244H15.3082Z" fill="#606060"/>
<path d="M3.1113 1.72749C3.50778 1.72749 3.85432 1.99231 3.95117 2.37366C4.44601 4.30006 4.15698 2.86093 5.33885 9.73122C5.48261 9.7176 5.55524 9.72214 6.11667 9.72214C4.92572 2.78224 5.20416 4.16387 4.6957 2.18601C4.51108 1.4672 3.85886 0.966309 3.10979 0.966309H0.384373C0.172514 0.966309 0 1.13731 0 1.34765C0 1.558 0.172514 1.729 0.384373 1.729H3.1113V1.72749Z" fill="#606060"/>
<path d="M5.19054 10.2124C4.49292 10.3607 3.9436 10.9796 3.9436 11.7378C3.9436 12.5988 4.65182 13.2995 5.52195 13.2995H6.34366C6.9066 12.4899 8.10815 12.4884 8.67109 13.2995H12.2969C12.8598 12.4899 14.0614 12.4899 14.6243 13.2995H15.0995C15.3114 13.2995 15.4839 13.1285 15.4839 12.9181C15.4839 12.7078 15.3114 12.5368 15.0995 12.5368H5.52195C5.07554 12.5368 4.71235 12.1781 4.71235 11.7378C4.71235 11.3413 5.01046 11.0084 5.4024 10.9509C5.53406 10.9312 5.47655 10.9388 15.098 10.9388C15.437 10.9388 15.6095 10.5317 15.3719 10.2911C15.2947 10.2124 15.1873 10.1761 15.098 10.1761C5.18903 10.1761 5.45083 10.1564 5.18903 10.2109L5.19054 10.2124Z" fill="#606060"/>
<path d="M8.40163 13.7535C8.18674 13.1996 7.50274 12.9651 6.9852 13.2995C6.19527 13.8095 6.55543 15.0337 7.50728 15.0337C8.17312 15.0337 8.64224 14.3739 8.40163 13.7535Z" fill="#606060"/>
<path d="M14.4185 14.0895C14.4185 13.5796 13.9948 13.1453 13.4606 13.1453C12.9264 13.1453 12.5027 13.5765 12.5027 14.0895C12.5027 14.6026 12.9325 15.0338 13.4606 15.0338C13.9887 15.0338 14.4185 14.6101 14.4185 14.0895Z" fill="#606060"/>
</svg>
