<svg width="17" height="18" viewBox="0 0 17 18" fill="none" xmlns="http://www.w3.org/2000/svg">
<path d="M8.5 0.5C3.80558 0.5 0 4.30558 0 9C0 13.6944 3.80558 17.5 8.5 17.5C13.1944 17.5 17 13.6944 17 9C17 4.30558 13.1944 0.5 8.5 0.5ZM8.48277 5.22635C9.2668 5.23667 9.9162 5.87492 10.132 6.68823C10.2142 7.02007 10.2235 7.35672 10.1406 7.7082C10.0155 8.20303 9.76518 8.68638 9.29875 8.98331L9.97855 9.30626L11.5938 10.0883C11.7525 10.1563 11.8317 10.2923 11.8317 10.4963V12.0599C11.8317 12.3824 11.8574 12.6605 11.4577 12.7742H5.50789C5.12349 12.7686 5.10757 12.3793 5.11658 12.0599V10.4963C5.11658 10.2923 5.2017 10.1504 5.3717 10.0711L7.03758 9.30626L7.68401 9C7.38935 8.80733 7.15699 8.54124 6.98699 8.20124C6.78284 7.75238 6.70191 7.16971 6.85082 6.63709C7.03906 5.91512 7.62862 5.26649 8.48277 5.22635ZM5.71187 5.94007C5.96122 5.94007 6.18769 6.01395 6.39167 6.16128C6.33511 6.31992 6.2872 6.48724 6.24742 6.66293C6.20776 6.83856 6.18767 7.02248 6.18767 7.21516C6.18766 7.49849 6.2273 7.77049 6.30662 8.03116C6.38594 8.29181 6.49943 8.53006 6.6468 8.74541C6.57879 8.83606 6.48832 8.91531 6.37497 8.98331L5.11655 9.56138C4.94655 9.65205 4.81056 9.77921 4.70856 9.94356C4.60656 10.1079 4.5557 10.2923 4.5557 10.4963V12.0599H3.31504C3.13506 12.0571 3.01349 11.8757 3.00877 11.6864V10.2073C3.00877 10.0373 3.07088 9.92378 3.19555 9.86711L5.08267 9C4.5951 8.70029 4.35988 8.15857 4.33506 7.55534C4.34364 6.81213 4.83078 6.00181 5.71187 5.94007ZM11.2876 5.94007C12.0709 5.95245 12.6367 6.72903 12.665 7.55535C12.6607 8.10212 12.4472 8.63008 11.9507 8.98333L13.8039 9.86713C13.9286 9.93513 13.9907 10.0486 13.9907 10.2073V11.6864C13.9888 11.862 13.8941 12.042 13.685 12.0599H12.4098V10.4963C12.4098 10.2923 12.359 10.1079 12.257 9.94354C12.155 9.7792 12.019 9.65205 11.849 9.56138C11.3205 9.31575 10.7136 9.13944 10.3187 8.72818C10.6134 8.27485 10.7606 7.7705 10.7606 7.21516C10.7606 6.86382 10.6985 6.51796 10.5739 6.17796C10.7786 6.04279 11.0209 5.94387 11.2876 5.94007Z" fill="#606060"/>
</svg>
