<svg width="17" height="18" viewBox="0 0 17 18" fill="none" xmlns="http://www.w3.org/2000/svg">
<path d="M8.50033 7.58268C9.25177 7.58268 9.97244 7.28417 10.5038 6.75282C11.0351 6.22147 11.3337 5.5008 11.3337 4.74935C11.3337 3.9979 11.0351 3.27723 10.5038 2.74588C9.97244 2.21453 9.25177 1.91602 8.50033 1.91602C7.74888 1.91602 7.02821 2.21453 6.49686 2.74588C5.9655 3.27723 5.66699 3.9979 5.66699 4.74935C5.66699 5.5008 5.9655 6.22147 6.49686 6.75282C7.02821 7.28417 7.74888 7.58268 8.50033 7.58268ZM3.89616 9.70768C4.36581 9.70768 4.81623 9.52111 5.14833 9.18902C5.48042 8.85692 5.66699 8.4065 5.66699 7.93685C5.66699 7.46719 5.48042 7.01678 5.14833 6.68468C4.81623 6.35258 4.36581 6.16602 3.89616 6.16602C3.4265 6.16602 2.97609 6.35258 2.64399 6.68468C2.31189 7.01678 2.12533 7.46719 2.12533 7.93685C2.12533 8.4065 2.31189 8.85692 2.64399 9.18902C2.97609 9.52111 3.4265 9.70768 3.89616 9.70768ZM14.8753 7.93685C14.8753 8.4065 14.6888 8.85692 14.3567 9.18902C14.0246 9.52111 13.5741 9.70768 13.1045 9.70768C12.6348 9.70768 12.1844 9.52111 11.8523 9.18902C11.5202 8.85692 11.3337 8.4065 11.3337 7.93685C11.3337 7.46719 11.5202 7.01678 11.8523 6.68468C12.1844 6.35258 12.6348 6.16602 13.1045 6.16602C13.5741 6.16602 14.0246 6.35258 14.3567 6.68468C14.6888 7.01678 14.8753 7.46719 14.8753 7.93685ZM8.50033 8.29102C9.43963 8.29102 10.3405 8.66415 11.0047 9.32835C11.6689 9.99254 12.042 10.8934 12.042 11.8327V16.0827H4.95866V11.8327C4.95866 10.8934 5.3318 9.99254 5.99599 9.32835C6.66018 8.66415 7.56102 8.29102 8.50033 8.29102ZM3.54199 11.8327C3.54199 11.3418 3.61283 10.8679 3.74599 10.4203L3.62558 10.4302C3.01845 10.4968 2.4573 10.7853 2.04972 11.2402C1.64214 11.6951 1.41683 12.2844 1.41699 12.8952V16.0827H3.54199V11.8327ZM15.5837 16.0827V12.8952C15.5837 12.2636 15.3428 11.6558 14.9099 11.1959C14.4771 10.7359 13.8851 10.4585 13.2547 10.4203C13.3871 10.8679 13.4587 11.3418 13.4587 11.8327V16.0827H15.5837Z" fill="#606060"/>
</svg>
