<svg width="16" height="14" viewBox="0 0 16 14" fill="none" xmlns="http://www.w3.org/2000/svg">
<path d="M2.21686 6.2334L1.9668 7.15179L4.25306 8.6489L3.71461 6.64132L2.21686 6.2334Z" fill="#606060"/>
<path d="M4.9792 2.77601L9.85966 1.13471L9.72132 0.723565C9.64208 0.489086 9.38682 0.362436 9.15234 0.441033L5.12354 1.7959C4.88841 1.87514 4.76176 2.12909 4.841 2.36487L4.9792 2.77601Z" fill="#606060"/>
<path d="M0 7.34204L1.47438 7.04588L1.75626 6.00861L0.635215 5.00708L0 7.34204Z" fill="#606060"/>
<path d="M8.88282 6.30591C8.67044 6.95672 8.44895 7.84979 8.55807 8.17383C8.7172 8.64732 9.22902 8.90127 9.7025 8.74215C10.1753 8.58302 10.4299 8.0712 10.2708 7.59772C10.1617 7.27297 9.44531 6.6956 8.88282 6.30591Z" fill="#606060"/>
<path d="M14.2303 7.30361C15.6351 6.62488 16.3451 4.99324 15.8352 3.47865C15.2785 1.82372 13.4859 0.949467 11.8504 1.50748C11.6835 1.26717 11.3724 1.1561 11.084 1.25288C10.6313 1.40552 4.31352 3.53 4.07525 3.61064C3.73946 3.72366 3.54849 4.08023 3.64008 4.42187L3.82519 5.11294L12.1907 2.29926L12.0563 1.96866C13.4164 1.53154 14.8952 2.26223 15.3583 3.63854C15.785 4.90768 15.2096 6.25602 14.0398 6.83598L12.3816 2.76611L3.95621 5.59991C4.04455 5.93051 5.70142 12.1074 5.74432 12.2658L14.9855 9.15733L14.2303 7.30361ZM9.86291 9.21842C9.12637 9.46653 8.32942 9.07033 8.08129 8.33379C7.86111 7.67844 8.40409 6.132 8.51516 5.82871C8.57037 5.67803 8.75159 5.61633 8.88733 5.70336C9.15947 5.87808 10.5267 6.78219 10.7476 7.43693C10.9951 8.17412 10.5994 8.97094 9.86291 9.21842Z" fill="#606060"/>
<path d="M5.92285 12.7374C6.29891 13.411 7.11405 13.7552 7.88754 13.4954L14.0202 11.4326C14.786 11.1748 15.2367 10.411 15.1276 9.64136L5.92285 12.7374Z" fill="#606060"/>
</svg>
