<svg width="16" height="16" viewBox="0 0 16 16" fill="none" xmlns="http://www.w3.org/2000/svg">
<path d="M7.99942 3.11177C6.70283 3.11177 5.45933 3.62684 4.5425 4.54368C3.62567 5.46051 3.1106 6.704 3.1106 8.0006C3.1106 9.2972 3.62567 10.5407 4.5425 11.4575C5.45933 12.3744 6.70283 12.8894 7.99942 12.8894C9.29602 12.8894 10.5395 12.3744 11.4563 11.4575C12.3732 10.5407 12.8883 9.2972 12.8883 8.0006C12.8883 6.704 12.3732 5.46051 11.4563 4.54368C10.5395 3.62684 9.29602 3.11177 7.99942 3.11177ZM9.67169 7.63657C9.63814 7.97875 9.54726 8.31285 9.40284 8.62488C8.97267 9.59705 8.17633 10.2299 7.47731 10.2299C7.32925 10.2307 7.18268 10.2003 7.04715 10.1407C7.02725 10.1321 7.01219 10.1159 6.99338 10.1063C6.97544 10.0998 6.95925 10.0893 6.94606 10.0756C6.85283 10.0186 6.76872 9.94794 6.69656 9.8659C6.48286 9.64139 6.35119 9.35133 6.32285 9.04267C6.29873 8.82162 6.29873 8.59859 6.32285 8.37753C6.32877 8.32376 6.32877 8.26999 6.33791 8.21299C6.37567 7.97978 6.44026 7.75171 6.53041 7.53333C6.55084 7.47956 6.56536 7.42579 6.58848 7.37578C7.08317 6.26004 8.05319 5.60135 8.81351 5.82396C8.85891 5.83289 8.90365 5.84493 8.9474 5.85999C9.02149 5.89579 9.091 5.94038 9.15442 5.9928H9.15818C9.17431 6.00571 9.18668 6.02345 9.20227 6.03743C9.23239 6.06324 9.25604 6.0912 9.28508 6.12131C9.31966 6.1569 9.35199 6.19462 9.38187 6.23423C9.54781 6.44144 9.64816 6.69343 9.67008 6.95799C9.67384 6.98864 9.67008 7.01982 9.67438 7.05047C9.68191 7.11715 9.68245 7.18759 9.6846 7.25695C9.6846 7.31072 9.68997 7.36073 9.68836 7.41235C9.68944 7.48548 9.67976 7.56129 9.67169 7.63657Z" fill="#606060"/>
<path d="M7.06317 9.82828C7.08956 9.81357 7.11489 9.79704 7.13899 9.77881C7.34547 9.62395 7.72025 9.1782 7.72401 7.98234C7.74116 7.60127 7.85348 7.23058 8.05072 6.90409C8.24797 6.5776 8.52386 6.30572 8.8532 6.11327C8.84782 6.11327 8.84406 6.10413 8.83922 6.10413C8.73401 6.05791 8.62021 6.03445 8.5053 6.0353C8.26005 6.04438 8.02252 6.12349 7.8208 6.26329C7.38543 6.56845 7.04568 6.99099 6.8411 7.48173C6.81852 7.53013 6.80292 7.58121 6.78303 7.63121C6.73225 7.76149 6.69004 7.89495 6.65667 8.03073C6.58276 8.33695 6.56112 8.65345 6.59268 8.96688C6.61629 9.16209 6.67922 9.35049 6.77765 9.52071C6.85277 9.64018 6.94962 9.7445 7.06317 9.82828Z" fill="#606060"/>
<path d="M9.403 6.96104C9.403 6.94706 9.39762 6.93362 9.39493 6.92018C9.38123 6.85332 9.36327 6.78741 9.34116 6.72284C9.3331 6.70026 9.3261 6.67821 9.31696 6.65616C9.30513 6.62605 9.29062 6.59917 9.27664 6.57067C9.22599 6.46858 9.16178 6.3738 9.08575 6.28891C8.77547 6.45612 8.51268 6.69931 8.32197 6.99572C8.13126 7.29214 8.01886 7.63209 7.99528 7.98376C7.99152 9.18177 7.63287 9.7141 7.36401 9.94585C7.61756 9.97481 7.87349 9.91802 8.09099 9.78454C8.57083 9.48388 8.94445 9.04049 9.15942 8.51663C9.18845 8.45533 9.20835 8.39134 9.23254 8.32843C9.27655 8.21132 9.31371 8.09174 9.34385 7.97032C9.35622 7.91655 9.37127 7.86762 9.38041 7.81546C9.3874 7.77728 9.39117 7.74072 9.39654 7.70308C9.41166 7.60151 9.42118 7.4992 9.42504 7.39659V7.37884C9.4265 7.26877 9.42147 7.15871 9.40999 7.04923C9.40891 7.01965 9.40784 6.989 9.403 6.96104Z" fill="#606060"/>
<path d="M8 0C6.41775 0 4.87103 0.469192 3.55544 1.34824C2.23985 2.22729 1.21447 3.47672 0.608967 4.93853C0.00346631 6.40034 -0.15496 8.00887 0.153721 9.56072C0.462403 11.1126 1.22433 12.538 2.34315 13.6569C3.46197 14.7757 4.88743 15.5376 6.43928 15.8463C7.99113 16.155 9.59966 15.9965 11.0615 15.391C12.5233 14.7855 13.7727 13.7602 14.6518 12.4446C15.5308 11.129 16 9.58225 16 8C16 5.87827 15.1571 3.84344 13.6569 2.34315C12.1566 0.842854 10.1217 0 8 0ZM8 13.8072C6.85144 13.8072 5.72867 13.4666 4.77368 12.8285C3.81868 12.1904 3.07436 11.2835 2.63482 10.2223C2.19528 9.1612 2.08028 7.99356 2.30436 6.86706C2.52843 5.74057 3.08151 4.70582 3.89367 3.89367C4.70583 3.08151 5.74057 2.52842 6.86707 2.30435C7.99356 2.08028 9.1612 2.19528 10.2223 2.63482C11.2835 3.07435 12.1904 3.81868 12.8285 4.77367C13.4666 5.72867 13.8072 6.85144 13.8072 8C13.8072 9.54017 13.1954 11.0173 12.1063 12.1063C11.0173 13.1954 9.54018 13.8072 8 13.8072Z" fill="#606060"/>
<path d="M8.00005 2.46169C6.90466 2.46169 5.83387 2.78651 4.92309 3.39507C4.01231 4.00363 3.30244 4.86861 2.88326 5.88062C2.46407 6.89262 2.35439 8.00621 2.56809 9.08055C2.78179 10.1549 3.30927 11.1417 4.08383 11.9163C4.85838 12.6908 5.84523 13.2183 6.91957 13.432C7.99391 13.6457 9.10749 13.536 10.1195 13.1169C11.1315 12.6977 11.9965 11.9878 12.605 11.077C13.2136 10.1662 13.5384 9.09545 13.5384 8.00006C13.5384 7.27275 13.3952 6.55256 13.1168 5.88062C12.8385 5.20867 12.4306 4.59812 11.9163 4.08384C11.402 3.56955 10.7914 3.1616 10.1195 2.88327C9.44755 2.60494 8.72736 2.46169 8.00005 2.46169ZM8.00005 13.1577C6.97996 13.1577 5.98277 12.8553 5.1346 12.2885C4.28642 11.7218 3.62535 10.9163 3.23497 9.97382C2.8446 9.03138 2.74246 7.99434 2.94147 6.99385C3.14048 5.99336 3.6317 5.07435 4.35302 4.35303C5.07433 3.63172 5.99334 3.1405 6.99384 2.94148C7.99433 2.74247 9.03137 2.84461 9.97381 3.23499C10.9163 3.62536 11.7218 4.28643 12.2885 5.13461C12.8552 5.98278 13.1577 6.97997 13.1577 8.00006C13.1577 9.36796 12.6143 10.6798 11.6471 11.6471C10.6798 12.6143 9.36795 13.1577 8.00005 13.1577Z" fill="#606060"/>
</svg>
