<svg width="13" height="16" viewBox="0 0 13 16" fill="none" xmlns="http://www.w3.org/2000/svg">
<path d="M3.3125 4.28125H5.4375M3.3125 8H9.6875M3.3125 10.125H9.6875M3.3125 12.25H5.4375M2.25 14.9062H10.75C11.0318 14.9062 11.302 14.7943 11.5013 14.5951C11.7006 14.3958 11.8125 14.1255 11.8125 13.8438V2.15625C11.8125 1.87446 11.7006 1.60421 11.5013 1.40495C11.302 1.20569 11.0318 1.09375 10.75 1.09375H2.25C1.96821 1.09375 1.69796 1.20569 1.4987 1.40495C1.29944 1.60421 1.1875 1.87446 1.1875 2.15625V13.8438C1.1875 14.1255 1.29944 14.3958 1.4987 14.5951C1.69796 14.7943 1.96821 14.9062 2.25 14.9062Z" stroke="#606060" stroke-linecap="round" stroke-linejoin="round"/>
</svg>
