<svg width="17" height="18" viewBox="0 0 17 18" fill="none" xmlns="http://www.w3.org/2000/svg">
<path d="M7.58333 12.0417H9.58648L14.0684 11.0106L14.0717 11.0098C14.2806 10.9528 14.5032 10.9735 14.6981 11.0685C14.896 11.1648 15.0513 11.3309 15.1342 11.5347C15.2172 11.7385 15.222 11.9658 15.1477 12.1729C15.0734 12.3801 14.9252 12.5525 14.7316 12.6571L14.7114 12.668L14.6902 12.6771L12.1884 13.7452L12.1519 13.7609L12.1133 13.7705L8.00283 14.7976L7.94315 14.8125H7.88162H3.89583H3.39583V14.3125V11.5953V11.3882L3.54228 11.2418L4.99436 9.78968L4.99521 9.78884C5.1242 9.66047 5.27721 9.55877 5.44551 9.48954C5.61356 9.42043 5.79356 9.38504 5.97525 9.3854M7.58333 12.0417V11.625M7.58333 12.0417V11.625M7.58333 12.0417V11.625M5.97525 9.3854C5.97553 9.3854 5.97581 9.38541 5.97609 9.38541L5.97479 9.88531V9.3854H5.97525ZM5.97525 9.3854H9.29688C9.59386 9.3854 9.87869 9.50338 10.0887 9.71338C10.2987 9.92338 10.4167 10.2082 10.4167 10.5052C10.4167 10.8022 10.2987 11.087 10.0887 11.297C9.87869 11.507 9.59386 11.625 9.29688 11.625H7.58333M11.4653 1.98772L11.6874 2.09792L11.9095 1.98782C12.3193 1.78475 12.774 1.6896 13.2308 1.71137C13.6876 1.73313 14.1313 1.87109 14.5199 2.11219C14.9084 2.3533 15.2291 2.68956 15.4514 3.08917C15.6737 3.48879 15.7904 3.93852 15.7904 4.39582C15.7904 4.85312 15.6737 5.30285 15.4514 5.70247C15.2291 6.10208 14.9084 6.43835 14.5199 6.67945C14.1313 6.92055 13.6876 7.05851 13.2308 7.08028C12.774 7.10204 12.3193 7.00689 11.9095 6.80382L11.6874 6.69372L11.4653 6.80392C11.0555 7.00722 10.6006 7.10257 10.1437 7.08093C9.68675 7.05928 9.2429 6.92137 8.85417 6.68024C8.46545 6.43911 8.1447 6.10274 7.92231 5.703C7.69992 5.30325 7.58324 4.85336 7.58333 4.39592V4.39572C7.58324 3.93828 7.69992 3.48839 7.92231 3.08864C8.1447 2.6889 8.46545 2.35254 8.85417 2.1114C9.2429 1.87027 9.68675 1.73236 10.1437 1.71071C10.6006 1.68907 11.0555 1.78442 11.4653 1.98772ZM12.5104 5.88177L12.0506 6.57501L12.8785 6.65579C12.9532 6.66307 13.0284 6.66665 13.1042 6.66666L13.1052 6.66665C13.4126 6.66599 13.7166 6.60293 13.9989 6.4813C14.2812 6.35967 14.5359 6.182 14.7474 5.95906C14.959 5.73612 15.1232 5.47254 15.2299 5.18429C15.3366 4.89605 15.3837 4.58913 15.3683 4.28215C15.3529 3.97517 15.2754 3.6745 15.1404 3.39838C15.0054 3.12225 14.8157 2.8764 14.5829 2.67573C14.3501 2.47506 14.0789 2.32374 13.7859 2.23095C13.4929 2.13815 13.1841 2.10581 12.8782 2.13589L12.051 2.21721L12.5104 2.90987C12.8026 3.35034 12.9584 3.86719 12.9583 4.39576V4.39588C12.9584 4.92445 12.8026 5.4413 12.5104 5.88177ZM10.8265 10.6532L10.7596 11.3443L11.4362 11.1887L13.9522 10.61L13.9598 10.6082L13.9673 10.6063C14.1614 10.5552 14.3645 10.5493 14.5613 10.5891C14.758 10.6288 14.9429 10.7131 15.102 10.8354C15.2611 10.9578 15.39 11.115 15.4788 11.2949C15.5676 11.4746 15.614 11.6723 15.6146 11.8727C15.6142 12.116 15.5463 12.3544 15.4183 12.5614C15.2902 12.7686 15.107 12.9361 14.8892 13.0451L14.8891 13.0451L14.8828 13.0484L14.8804 13.0496L12.285 14.1565L7.99432 15.2292H0.5V11.0937H2.89425H3.10136L3.2478 10.9473L4.7007 9.49439C4.70079 9.4943 4.70088 9.49421 4.70097 9.49413C4.86855 9.32718 5.06737 9.19485 5.28608 9.10471C5.5049 9.01452 5.73934 8.96831 5.97602 8.96874H5.97692H9.29688H9.29694C9.51121 8.96871 9.72312 9.0135 9.91905 9.10023C10.115 9.18696 10.2906 9.31371 10.4346 9.47234C10.5787 9.63098 10.688 9.81799 10.7554 10.0214C10.8229 10.2247 10.8471 10.44 10.8265 10.6532ZM2.97917 12.0104V11.5104H2.47917H1.41667H0.916667V12.0104V14.3125V14.8125H1.41667H2.47917H2.97917V14.3125V12.0104Z" stroke="#606060"/>
</svg>
