<svg width="16" height="16" viewBox="0 0 16 16" fill="none" xmlns="http://www.w3.org/2000/svg">
<path d="M12.75 8.5H15.25" stroke="black" stroke-width="1.5" stroke-linecap="round" stroke-linejoin="round"/>
<path d="M14 7.25V9.75" stroke="black" stroke-width="1.5" stroke-linecap="round" stroke-linejoin="round"/>
<path d="M6.75 10C8.82107 10 10.5 8.32107 10.5 6.25C10.5 4.17893 8.82107 2.5 6.75 2.5C4.67893 2.5 3 4.17893 3 6.25C3 8.32107 4.67893 10 6.75 10Z" stroke="black" stroke-width="1.5" stroke-linecap="round" stroke-linejoin="round"/>
<path d="M1.3877 12.4997C2.04473 11.7166 2.8653 11.087 3.79173 10.6549C4.71817 10.2229 5.72798 9.99902 6.7502 9.99902C7.77241 9.99902 8.78222 10.2229 9.70866 10.6549C10.6351 11.087 11.4557 11.7166 12.1127 12.4997" stroke="black" stroke-width="2.25" stroke-linecap="round" stroke-linejoin="round"/>
</svg>
