<svg width="16" height="16" viewBox="0 0 16 16" fill="none" xmlns="http://www.w3.org/2000/svg">
<path d="M8 0C5.8784 0 3.84373 0.843058 2.34311 2.34311C0.843111 3.8438 0 5.87858 0 8C0 10.1214 0.843058 12.1563 2.34311 13.6569C3.8438 15.1569 5.87858 16 8 16C10.1214 16 12.1563 15.1569 13.6569 13.6569C15.1569 12.1562 16 10.1214 16 8C16 5.87858 15.1569 3.84373 13.6569 2.34311C12.1562 0.843111 10.1214 0 8 0ZM12.2347 6.58827C12.8055 6.58827 13.3201 6.93271 13.5388 7.45979C13.7569 7.98757 13.6367 8.59451 13.2326 8.99797C12.8291 9.40213 12.2222 9.52297 11.6944 9.30423C11.1673 9.08548 10.8229 8.5709 10.8229 8.00007C10.8229 7.22021 11.4548 6.58827 12.2347 6.58827ZM8 5.6466C8.76181 5.6466 9.44791 6.10492 9.73959 6.80841C10.0306 7.51188 9.86945 8.3216 9.33125 8.8605C8.79307 9.39868 7.98334 9.5598 7.27988 9.26814C6.57572 8.97717 6.11737 8.29036 6.11737 7.52926C6.12154 6.49108 6.96178 5.65015 8 5.6466ZM3.76533 6.58827C4.33616 6.58827 4.85076 6.93271 5.06949 7.45979C5.28825 7.98757 5.16741 8.59451 4.76324 8.99797C4.35977 9.40213 3.75282 9.52297 3.22505 9.30423C2.69797 9.08547 2.35353 8.5709 2.35353 8.00007C2.35353 7.62576 2.50214 7.26604 2.76672 7.00146C3.03131 6.73687 3.39102 6.58827 3.76533 6.58827ZM4.70562 12.7063V14.2313C3.58132 13.6313 2.63895 12.7403 1.97708 11.6514C2.17986 11 2.72222 10.5118 3.39097 10.3785C4.06041 10.2451 4.7486 10.4882 5.18617 11.0118C4.87367 11.5215 4.7077 12.1076 4.70562 12.7055V12.7063ZM5.63687 14.6458V12.7063L5.63757 12.7056C5.63757 11.4056 6.69104 10.3522 7.99099 10.3522C9.29093 10.3522 10.3451 11.4057 10.3451 12.7056C10.3451 13.5716 10.3347 14.4834 10.3451 14.6452C8.82429 15.1959 7.15828 15.1959 5.63757 14.6452L5.63687 14.6458ZM11.2945 14.2403V12.7146C11.2917 12.1174 11.1257 11.532 10.8139 11.0223C11.1757 10.5862 11.7167 10.3403 12.2827 10.3556C13.0827 10.373 13.7834 10.8986 14.023 11.6625C13.3632 12.7521 12.4202 13.6431 11.2945 14.2403Z" fill="#606060"/>
</svg>
