<svg width="25" height="17" viewBox="0 0 25 17" fill="none" xmlns="http://www.w3.org/2000/svg">
<path d="M15.6624 10.5C12.8223 10.5 7.15286 11.83 7.15286 14.5V16.5H24.172V14.5C24.172 11.83 18.5025 10.5 15.6624 10.5ZM6.08916 6.5V3.5H3.96177V6.5H0.770691V8.5H3.96177V11.5H6.08916V8.5H9.28024V6.5M15.6624 8.5C16.7908 8.5 17.8731 8.07857 18.671 7.32843C19.4689 6.57828 19.9172 5.56087 19.9172 4.5C19.9172 3.43913 19.4689 2.42172 18.671 1.67157C17.8731 0.921427 16.7908 0.5 15.6624 0.5C14.534 0.5 13.4518 0.921427 12.6538 1.67157C11.8559 2.42172 11.4076 3.43913 11.4076 4.5C11.4076 5.56087 11.8559 6.57828 12.6538 7.32843C13.4518 8.07857 14.534 8.5 15.6624 8.5Z" fill="#41823F"/>
</svg>
