<svg width="17" height="18" viewBox="0 0 17 18" fill="none" xmlns="http://www.w3.org/2000/svg">
<path fill-rule="evenodd" clip-rule="evenodd" d="M8.82867 0.605356C8.73269 0.537025 8.61781 0.500305 8.5 0.500305C8.38219 0.500305 8.2673 0.537025 8.17133 0.605356L0.238 6.27202C0.164452 6.32439 0.104481 6.39357 0.0630823 6.4738C0.0216836 6.55404 5.56708e-05 6.643 0 6.73329L0 16.9333C0 17.0836 0.0597022 17.2277 0.165973 17.334C0.272243 17.4403 0.416377 17.5 0.566667 17.5H2.26667V9.56662H7.93333V17.5H16.4333C16.5836 17.5 16.7278 17.4403 16.834 17.334C16.9403 17.2277 17 17.0836 17 16.9333V6.73329C16.9999 6.643 16.9783 6.55404 16.9369 6.4738C16.8955 6.39357 16.8355 6.32439 16.762 6.27202L15.8667 5.63169V2.76662H14.7333V4.82249L8.82867 0.605356ZM12.4667 14.1V9.56662H13.6V14.1H12.4667Z" fill="#606060"/>
</svg>
